<?xml version="1.0" encoding="utf-8"?>
<!-- Generator: Adobe Illustrator 16.0.0, SVG Export Plug-In . SVG Version: 6.00 Build 0)  -->
<!DOCTYPE svg PUBLIC "-//W3C//DTD SVG 1.0//EN" "http://www.w3.org/TR/2001/REC-SVG-20010904/DTD/svg10.dtd">
<svg version="1.0" id="Layer_1" xmlns="http://www.w3.org/2000/svg" xmlns:xlink="http://www.w3.org/1999/xlink" x="0px" y="0px"
	 width="576px" height="576px" viewBox="0 0 576 576" enable-background="new 0 0 576 576" xml:space="preserve">
<g>
	<path fill="#010101" d="M358.12,458.36c-16.966,0-30.72,13.754-30.72,30.72s13.754,30.72,30.72,30.72s30.72-13.754,30.72-30.72
		S375.086,458.36,358.12,458.36z M358.12,504.44c-8.483,0-15.36-6.877-15.36-15.36s6.877-15.36,15.36-15.36s15.36,6.877,15.36,15.36
		S366.604,504.44,358.12,504.44z"/>
	<path fill="#010101" d="M518.862,509.278l-15.36-38.4c-1.021-2.561-3.336-4.378-6.066-4.761l-49.69-7.066
		c-23.039-46.08-57.83-62.976-88.934-63.744l-22.503-30.028l25.805-15.36c2.351-1.43,3.757-4.008,3.687-6.758v-46.08
		c-0.003-1.867-0.685-3.669-1.92-5.068l-153.6-176.641c-2.527-2.929-6.837-3.521-10.061-1.382l-16.589,11.136l-26.496-39.629
		c-0.975-1.66-2.537-2.894-4.377-3.456L68.277,59c-4.242-1.103-8.574,1.441-9.677,5.683c-1.103,4.242,1.441,8.574,5.683,9.677l0,0
		l81.715,22.272l24.883,37.325l-16.666,11.136c-3.24,2.178-4.331,6.44-2.534,9.907l122.88,238.08
		c1.948,3.768,6.581,5.244,10.349,3.296c0.136-0.071,0.271-0.146,0.403-0.224l8.602-5.146l13.901,18.586
		c-31.191,17.773-47.922,53.168-41.856,88.551c0.676,3.694,3.924,6.358,7.68,6.298h31.257c4.241,0.041,7.714-3.363,7.756-7.604
		c0.003-0.385-0.021-0.77-0.076-1.151c-0.335-2.186-0.515-4.393-0.537-6.604c0-25.449,20.631-46.08,46.08-46.08
		s46.08,20.631,46.08,46.08c0.011,6.83-1.511,13.574-4.455,19.737c-1.823,3.829-0.197,8.412,3.632,10.236
		c1.025,0.488,2.146,0.743,3.28,0.746H511.72c4.242,0.004,7.684-3.431,7.688-7.673C519.408,511.151,519.224,510.185,518.862,509.278
		z M350.44,312.439c-35.175-0.537-61.44-8.447-98.765-126.028l98.765,113.511V312.439z M284.392,378.488L168.424,153.771
		l17.357-11.52l0,0l17.434-11.597l24.346,28.186c-0.108,0.739-0.108,1.489,0,2.228C272.104,312.439,302.9,326.648,350.44,327.8
		v11.06L284.392,378.488z M307.432,382.712l15.898-9.522l17.356,23.73c-3.923,0.664-7.797,1.588-11.597,2.765
		c-2.458,0.769-4.915,1.69-7.681,2.688L307.432,382.712z M417.64,504.44c8.417-32.872-11.408-66.343-44.28-74.76
		c-32.872-8.416-66.344,11.409-74.76,44.281c-1.265,4.94-1.91,10.019-1.92,15.118h-16.358c-3.379-37.018,23.424-65.434,53.76-74.957
		c32.025-10.215,75.647-1.075,101.913,55.22c1.084,2.349,3.278,3.994,5.837,4.377l49.383,7.065l9.139,23.655H417.64z"/>
</g>
<g>
</g>
<g>
</g>
<g>
</g>
<g>
</g>
<g>
</g>
<g>
</g>
</svg>
