<?xml version="1.0" encoding="UTF-8" standalone="no"?>
<!DOCTYPE svg PUBLIC "-//W3C//DTD SVG 1.1//EN" "http://www.w3.org/Graphics/SVG/1.1/DTD/svg11.dtd">
<svg width="100%" height="100%" viewBox="0 0 250 250" version="1.1" xmlns="http://www.w3.org/2000/svg" xmlns:xlink="http://www.w3.org/1999/xlink" xml:space="preserve" xmlns:serif="http://www.serif.com/" style="fill-rule:evenodd;clip-rule:evenodd;stroke-linejoin:round;stroke-miterlimit:2;">
    <g transform="matrix(1.16713,0,0,1.17851,-19.2739,-40.5795)">
        <path d="M109.849,38.24C118.33,33.827 128.461,33.827 136.942,38.24C160.868,50.739 184.61,63.966 207.794,77.712C216.294,82.772 221.611,91.768 221.903,101.586C222.625,127.445 222.625,153.502 221.903,179.36C221.61,189.178 216.294,198.174 207.794,203.234C184.61,216.981 160.868,230.208 136.942,242.707C128.461,247.119 118.33,247.12 109.849,242.707C85.923,230.208 62.181,216.981 38.998,203.235C30.497,198.174 25.18,189.178 24.888,179.36C24.166,153.502 24.166,127.445 24.889,101.586C25.181,91.769 30.497,82.773 38.998,77.712C62.181,63.966 85.923,50.739 109.849,38.24Z" style="fill:rgb(7,77,57);"/>
    </g>
    <g transform="matrix(0.240774,0,0,0.240774,43.0498,55.8354)">
        <g transform="matrix(1.11675,0,0,1.14118,-51.9314,-76.8193)">
            <path d="M471.33,522.67C471.33,543.287 454.615,560.002 433.998,560.002C413.381,560.002 396.666,543.287 396.666,522.67C396.666,502.049 413.381,485.334 433.998,485.334C454.615,485.334 471.33,502.049 471.33,522.67" style="fill:white;fill-rule:nonzero;"/>
        </g>
        <path d="M629.35,547.21L594.833,509.945C593.591,506.831 590.779,504.624 587.462,504.16L542.924,486.171C514.924,430.171 472.643,409.636 434.844,408.706L407.496,372.214L438.855,353.546L438.851,353.542C441.71,351.804 443.417,348.671 443.331,345.327L443.331,333.475C443.386,328.819 439.999,324.838 435.398,324.143C395.023,316.526 358.503,295.237 331.988,263.846C313.574,242.186 299.754,217.014 291.363,189.85C282.972,162.69 280.183,134.104 283.171,105.834C283.39,103.322 282.582,100.834 280.933,98.928L254.331,68.502C251.261,64.943 246.023,64.221 242.104,66.822L221.944,80.353L189.745,32.193C188.562,30.178 186.663,28.678 184.425,27.994L81.755,-0.006L81.759,-0.006C76.603,-1.346 71.337,1.748 69.997,6.9C68.657,12.056 71.751,17.322 76.903,18.662L176.212,45.728L206.45,91.087L186.196,104.622L186.196,104.618C182.259,107.267 180.934,112.446 183.118,116.661L332.448,405.991C333.628,408.277 335.702,409.972 338.175,410.679C340.647,411.386 343.303,411.042 345.514,409.726L355.967,403.472L372.862,426.058C354.358,436.601 339.55,452.585 330.448,471.839C321.351,491.093 318.397,512.683 321.995,533.671C322.816,538.163 335.714,556.805 340.277,556.731L377.613,556.731C380.332,556.758 382.925,555.598 384.718,553.555C386.515,551.508 378.374,533.378 377.995,530.683C377.804,528.011 377.804,525.331 377.995,522.659C377.964,505.389 385.906,489.069 399.511,478.436C413.12,467.803 430.87,464.041 447.62,468.245C459.843,471.101 470.714,478.062 478.425,487.964C486.136,497.866 490.218,510.109 489.995,522.659C489.952,530.831 488.105,538.893 484.581,546.272C483.206,549.159 483.405,552.549 485.109,555.257C486.812,557.964 489.784,559.608 492.984,559.616L620.664,559.616C623.757,559.62 626.656,558.089 628.394,555.526C630.132,552.964 630.488,549.706 629.343,546.831L629.35,547.21ZM398.72,413.74C395.732,414.674 392.747,415.795 389.388,417.006L371.654,393.393L390.974,381.819L412.814,410.663C408.056,411.377 403.345,412.405 398.72,413.741L398.72,413.74Z" style="fill:white;fill-rule:nonzero;"/>
        <g transform="matrix(1.21317,0.0993542,-0.0899612,1.09847,-65.3446,-59.5159)">
            <path d="M434.335,302.394C435.702,302.609 437.101,302.219 438.159,301.324C439.214,300.426 439.831,299.113 439.839,297.726L443.334,289.334C443.33,287.068 442.502,284.877 441.002,283.174L312.897,135.059C311.592,133.52 309.444,132.997 307.573,133.759C305.702,134.524 304.538,136.407 304.686,138.423C305.819,181.384 318.207,219.37 346.175,251.997C369.726,279.802 398.563,295.459 434.336,302.389L434.335,302.394Z" style="fill:white;fill-rule:nonzero;"/>
        </g>
    </g>
</svg>
